<?xml version="1.0" encoding="utf-8"?>
<!-- Generator: Adobe Illustrator 21.0.0, SVG Export Plug-In . SVG Version: 6.00 Build 0)  -->
<svg version="1.1" id="Layer_1" xmlns="http://www.w3.org/2000/svg" xmlns:xlink="http://www.w3.org/1999/xlink" x="0px" y="0px"
	 viewBox="0 0 160 160" style="enable-background:new 0 0 160 160;" xml:space="preserve">
<style type="text/css">
	.st0{fill:#FF9800;}
	.st1{opacity:0.2;fill:#515151;}
	.st2{fill:#009688;}
	.st3{fill:#00796B;}
</style>
<path class="st0" d="M63.7,85L52.3,74.7l52.3-52l55.3,55.3c-1.2-43.1-36.4-77.7-79.8-77.7C36,0.3,0.3,36,0.3,80.1
	c0,41.2,31.2,75.1,71.3,79.4l-45.9-48.1L63.7,85z"/>
<path class="st0" d="M160,80.1c0-0.7,0-1.5-0.1-2.2l-55.3-55.3l-52.3,52L63.7,85l-38,26.4l45.9,48.1c2.8,0.3,5.7,0.5,8.6,0.5
	C124.2,160,160,124.2,160,80.1z"/>
<path class="st1" d="M160,80.1c0-0.7,0-1.5-0.1-2.2l-55.3-55.3L52.9,74.5l29.5,29.2l-56.7,7.7l45.9,48.1c2.8,0.3,5.7,0.5,8.6,0.5
	C124.2,160,160,124.2,160,80.1z"/>
<path class="st2" d="M43.5,50c0,20.3,16.5,36.8,36.8,36.8V13.3C60,13.3,43.5,29.7,43.5,50z"/>
<path class="st2" d="M43.4,94c-6.9,4.6-12.9,10.6-17.7,17.4c10.2,19.8,30.8,33.3,54.6,33.3V94H43.4z"/>
<path class="st3" d="M117,50c0-20.3-16.5-36.8-36.8-36.8v73.5C100.5,86.8,117,70.3,117,50z"/>
<path class="st3" d="M134.8,111.4c-4.8-6.9-10.8-12.8-17.7-17.4H80.3v50.7C104,144.7,124.6,131.2,134.8,111.4z"/>
</svg>
