<?xml version="1.0" encoding="utf-8"?>
<!-- Generator: Adobe Illustrator 21.0.0, SVG Export Plug-In . SVG Version: 6.00 Build 0)  -->
<svg version="1.1" id="Layer_1" xmlns="http://www.w3.org/2000/svg" xmlns:xlink="http://www.w3.org/1999/xlink" x="0px" y="0px"
	 viewBox="0 0 50 50" style="enable-background:new 0 0 50 50;" xml:space="preserve">
<style type="text/css">
	.st0{fill:none;}
	.st1{fill:#FF9800;}
	.st2{fill:#FFFFFF;}
</style>
<path class="st0" d="M25.6,23.2C25.6,23.2,25.6,23.2,25.6,23.2C25.6,23.2,25.6,23.2,25.6,23.2C25.6,23.2,25.6,23.2,25.6,23.2
	L25.6,23.2z"/>
<path class="st1" d="M26,22.8C26,22.8,26,22.8,26,22.8C26,22.8,26,22.8,26,22.8C26,22.8,26,22.8,26,22.8L26,22.8z"/>
<g>
	<path class="st2" d="M28.4,1.2c0,0.9,0,1.8,0,2.8c-0.7,0-1.3,0-1.9,0c0,1.5,0,2.9,0,4.4c2,0.2,3.9,0.7,5.7,1.5
		c0.4-0.7,0.8-1.3,1.2-2c-0.4-0.3-0.9-0.5-1.3-0.8c0.5-0.8,0.9-1.6,1.4-2.4c1.7,1,3.4,2,5.1,3c-0.5,0.8-0.9,1.6-1.4,2.5
		c-0.4-0.2-0.9-0.5-1.3-0.8c-0.4,0.7-0.8,1.3-1.2,2c1.6,1.2,3,2.5,4.2,4.2c1.3-0.7,2.5-1.4,3.8-2.2c-0.3-0.6-0.6-1.1-0.9-1.7
		c0.8-0.5,1.6-0.9,2.4-1.4c1.1,1.9,2.2,3.8,3.3,5.8c-0.8,0.5-1.6,0.9-2.4,1.4c-0.3-0.5-0.6-1.1-1-1.6c-1.3,0.7-2.5,1.4-3.8,2.2
		c0.8,1.8,1.3,3.7,1.5,5.7c0.8,0,1.5,0,2.3,0c0-0.5,0-1,0-1.5c0.9,0,1.8,0,2.8,0c0,2,0,3.9,0,5.9c-0.9,0-1.8,0-2.8,0
		c0-0.5,0-1,0-1.5c-0.8,0-1.5,0-2.3,0c-0.2,2-0.7,3.9-1.5,5.7c1.3,0.7,2.5,1.4,3.8,2.2c0.3-0.6,0.6-1.1,1-1.6
		c0.8,0.5,1.6,0.9,2.4,1.4c-1.1,1.9-2.2,3.8-3.3,5.8c-0.8-0.5-1.6-0.9-2.5-1.4c0.3-0.6,0.6-1.1,0.9-1.7c-1.3-0.7-2.5-1.4-3.8-2.2
		c-1.2,1.6-2.6,3-4.2,4.2c0.4,0.7,0.8,1.3,1.2,2c0.4-0.3,0.9-0.5,1.3-0.8c0.5,0.8,0.9,1.6,1.4,2.4c-1.7,1-3.4,2-5.1,3
		c-0.5-0.8-0.9-1.6-1.4-2.4c0.4-0.3,0.9-0.5,1.3-0.8c-0.4-0.7-0.8-1.3-1.1-2c-1.8,0.8-3.7,1.3-5.7,1.5c0,1.5,0,2.9,0,4.4
		c0.6,0,1.2,0,1.9,0c0,1,0,1.9,0,2.8c-1.1,0-2.2,0-3.4,0c0-3.3,0-6.6,0-9.9c0.5-0.1,1-0.1,1.5-0.1c3.7-0.5,6.7-2.1,9.1-4.9
		c2.6-3,3.7-6.6,3.2-10.5c-0.7-6.5-5.7-11.5-12.1-12.4c-0.6-0.1-1.2-0.1-1.8-0.2c0-3.3,0-6.6,0-9.9C26.2,1.2,27.3,1.2,28.4,1.2z"/>
	<path class="st2" d="M25.1,39.1c0,3.3,0,6.6,0,9.9c-1.1,0-2.2,0-3.3,0c-0.1-0.9,0-1.8,0-2.8c0.6,0,1.2,0,1.9,0c0-1.5,0-2.9,0-4.4
		c-2-0.2-3.9-0.7-5.7-1.5c-0.4,0.7-0.8,1.3-1.2,2c0.5,0.3,0.9,0.5,1.3,0.8c-0.5,0.8-0.9,1.6-1.4,2.4c-1.7-1-3.4-1.9-5.1-2.9
		c0.5-0.8,0.9-1.6,1.4-2.4c0.4,0.3,0.9,0.5,1.3,0.8c0.4-0.7,0.8-1.3,1.2-2c-1.6-1.2-3-2.5-4.2-4.2c-1.3,0.7-2.5,1.5-3.8,2.2
		c0.3,0.6,0.6,1.1,0.9,1.7C7.6,39,6.8,39.4,6,39.9c-1.1-1.9-2.2-3.8-3.3-5.7c0.8-0.5,1.6-0.9,2.4-1.4c0.3,0.5,0.6,1.1,1,1.6
		c1.3-0.7,2.5-1.4,3.8-2.2c-0.4-0.9-0.8-1.9-1-2.8c-0.3-0.9-0.4-1.9-0.5-2.9c-0.8,0-1.5,0-2.3,0c0,0.5,0,1,0,1.5c-1,0-1.9,0-2.8,0
		c0-1.9,0-3.9,0-5.8c0.9,0,1.8,0,2.8,0c0,0.5,0,1,0,1.5c0.8,0,1.5,0,2.3,0c0.2-2,0.7-3.9,1.5-5.7c-1.3-0.7-2.5-1.5-3.8-2.2
		c-0.3,0.5-0.6,1.1-1,1.6c-0.8-0.5-1.6-0.9-2.4-1.4c1.1-1.9,2.2-3.8,3.3-5.7c0.8,0.5,1.6,0.9,2.4,1.4c-0.3,0.6-0.6,1.1-0.9,1.7
		c1.3,0.7,2.5,1.5,3.8,2.2c1.2-1.6,2.5-3,4.2-4.2c-0.4-0.7-0.8-1.3-1.2-2C13.9,9.5,13.5,9.8,13,10c-0.5-0.8-0.9-1.6-1.4-2.4
		c1.7-1,3.4-1.9,5.1-2.9c0.5,0.8,0.9,1.6,1.4,2.4c-0.4,0.3-0.9,0.5-1.3,0.8c0.4,0.7,0.8,1.3,1.2,2c1.8-0.8,3.7-1.4,5.7-1.5
		c0-1.5,0-2.9,0-4.4c-0.6,0-1.2,0-1.9,0c0-1-0.1-1.9,0-2.8c1.1,0,2.2,0,3.3,0c0,3.3,0,6.6,0,9.9c0,0,0,0,0,0c-0.2,0-0.4,0-0.6,0
		c-3.5,0.1-6.5,1.5-9.1,3.9c-3.2,3.1-4.7,7-4.2,11.5c0.5,4.6,2.7,8.1,6.6,10.5C20,38.4,22.4,39,25.1,39.1
		C25,39.1,25.1,39.1,25.1,39.1z"/>
	<path class="st2" d="M30.8,16.2c2.2,0,4,1.8,4,4c0,2.2-1.8,4.1-4,4.1c-2.2,0-4-1.8-4-4C26.7,18,28.5,16.2,30.8,16.2z"/>
	<path class="st2" d="M13.9,23c0-2.5,1.9-4.4,4.4-4.4c2.4,0,4.4,2,4.4,4.4c0,2.4-2,4.4-4.4,4.4C15.9,27.4,13.9,25.4,13.9,23z"/>
	<path class="st2" d="M21.7,32c0-2.5,1.9-4.4,4.4-4.4c2.4,0,4.4,2,4.4,4.4c0,2.4-2,4.4-4.4,4.4C23.6,36.4,21.6,34.4,21.7,32z"/>
</g>
</svg>
