<?xml version="1.0" encoding="utf-8"?>
<!-- Generator: Adobe Illustrator 21.0.0, SVG Export Plug-In . SVG Version: 6.00 Build 0)  -->
<svg version="1.1" id="Layer_1" xmlns="http://www.w3.org/2000/svg" xmlns:xlink="http://www.w3.org/1999/xlink" x="0px" y="0px"
	 viewBox="0 0 200 50" style="enable-background:new 0 0 200 50;" xml:space="preserve">
<style type="text/css">
	.st0{fill:#00796B;}
</style>
<g>
	<g>
		<path class="st0" d="M29.2,14.4v1.9c-0.6,0.1-1.1,0.4-1.4,0.8c-0.3,0.5-0.5,1.1-0.5,2v13.2V33c0,0.2,0.1,0.5,0.2,0.8
			c0.1,0.3,0.2,0.5,0.4,0.7c0.2,0.2,0.4,0.4,0.5,0.5c0.2,0.1,0.5,0.2,0.8,0.2V37c-2.1,0-3.9-0.5-5.4-1.6c-1.3-0.9-2.4-2.2-3-3.8
			c-0.7-1.6-1-3.5-1-5.7c0-1.6,0.2-3.1,0.7-4.5c0.4-1.4,1.1-2.6,1.9-3.6c0.9-1,1.9-1.9,3.1-2.5c1.2-0.6,2.3-0.9,3.4-0.9L29.2,14.4z
			 M30.5,16.3v-1.9c0.5,0.1,0.9,0.2,1.3,0.3c0.3,0.1,0.9,0.3,1.8,0.6c0.5,0.2,0.9,0.3,1.1,0.3c0.3,0,0.5-0.1,0.7-0.4l0.2-0.4
			c0.1-0.3,0.4-0.4,0.7-0.4c0.3,0,0.5,0.1,0.7,0.3c0.2,0.2,0.2,0.4,0.2,0.8V22c0,0.4-0.1,0.7-0.3,0.9s-0.4,0.3-0.7,0.3
			c-0.3,0-0.5-0.1-0.6-0.2c-0.2-0.2-0.3-0.4-0.4-0.8c-0.2-0.8-0.4-1.5-0.7-2c-0.5-1-1-1.8-1.6-2.5c-0.4-0.4-0.8-0.8-1.2-1
			C31.4,16.5,30.9,16.4,30.5,16.3z M30.5,37v-1.9c0.8-0.1,1.7-0.4,2.6-0.9c0.5-0.3,0.9-0.7,1.3-1.2c0.4-0.5,0.7-1.1,0.9-1.7
			c0.1-0.3,0.2-0.6,0.4-0.7c0.1-0.1,0.3-0.2,0.6-0.2c0.3,0,0.5,0.1,0.6,0.3c0.2,0.2,0.3,0.4,0.3,0.7c0,0.5-0.2,1.1-0.6,1.7
			c-0.4,0.7-0.8,1.3-1.4,1.9c-0.7,0.7-1.4,1.2-2.2,1.6C32.3,36.8,31.4,37,30.5,37z"/>
		<path class="st0" d="M84.2,31l-1.5,5.6h-4.2l-5.7-19.1c-0.1-0.3-0.2-0.5-0.2-0.6c-0.1-0.1-0.2-0.2-0.4-0.3
			c-0.3-0.1-0.6-0.3-0.7-0.4c-0.1-0.1-0.2-0.3-0.2-0.5c0-0.3,0.1-0.6,0.4-0.8c0.2-0.1,0.6-0.2,1.1-0.2H80c0.4,0,0.8,0,0.9,0
			c0.2,0,0.3,0.1,0.4,0.1c0.1,0.1,0.2,0.2,0.3,0.3c0.1,0.1,0.1,0.3,0.1,0.4c0,0.4-0.2,0.7-0.6,0.8c-0.3,0.1-0.5,0.3-0.6,0.4
			c-0.1,0.1-0.2,0.3-0.2,0.6c0,0.2,0,0.3,0,0.4L84.2,31z M84.8,28.7l-0.8-3l1.8-6.7c0.1-0.4,0.2-0.7,0.2-0.8c0-0.2,0-0.5-0.2-0.8
			c-0.2-0.4-0.4-0.6-0.8-0.7l-0.5-0.2c-0.4-0.1-0.6-0.4-0.6-0.8c0-0.3,0.1-0.5,0.4-0.7c0.2-0.2,0.6-0.2,1-0.2h3.9c0.5,0,0.8,0,1,0.1
			c0.3,0.2,0.4,0.4,0.4,0.7c0,0.2,0,0.4-0.1,0.5c-0.1,0.1-0.2,0.2-0.4,0.3l-0.8,0.4c-0.3,0.2-0.7,0.5-1,1c-0.3,0.5-0.6,1-0.7,1.6
			L84.8,28.7z"/>
		<path class="st0" d="M100.8,36.6h-7.1h-0.4c-0.4,0-0.7-0.1-0.9-0.2C92.1,36.3,92,36,92,35.8c0-0.4,0.2-0.7,0.6-0.9
			c0.4-0.1,0.6-0.2,0.6-0.2c0.1,0,0.1-0.1,0.2-0.2c0.1-0.2,0.2-0.4,0.2-0.8v-16c0-0.4-0.1-0.6-0.2-0.8c-0.1-0.1-0.1-0.2-0.2-0.2
			c-0.1,0-0.3-0.1-0.6-0.2c-0.4-0.1-0.6-0.4-0.6-0.9c0-0.3,0.1-0.5,0.3-0.6c0.2-0.1,0.5-0.2,0.9-0.2h0.4h7.1h0.4
			c0.4,0,0.7,0.1,0.9,0.2c0.2,0.1,0.3,0.3,0.3,0.6c0,0.4-0.2,0.7-0.6,0.9c-0.4,0.1-0.6,0.2-0.6,0.2c-0.1,0-0.1,0.1-0.2,0.2
			c-0.1,0.2-0.2,0.4-0.2,0.8v16c0,0.4,0.1,0.6,0.2,0.8c0.1,0.1,0.1,0.2,0.2,0.2s0.3,0.1,0.6,0.2c0.4,0.1,0.6,0.4,0.6,0.9
			c0,0.3-0.1,0.5-0.3,0.6c-0.2,0.1-0.5,0.2-0.9,0.2H100.8z"/>
		<path class="st0" d="M113.7,14.8v21.8h-7.1h-0.4c-0.4,0-0.7-0.1-0.9-0.2c-0.2-0.1-0.3-0.3-0.3-0.6c0-0.4,0.2-0.7,0.6-0.9
			c0.4-0.1,0.6-0.2,0.6-0.2c0.1,0,0.1-0.1,0.2-0.2c0.1-0.2,0.2-0.4,0.2-0.8v-16c0-0.4-0.1-0.6-0.2-0.8c-0.1-0.1-0.1-0.2-0.2-0.2
			c-0.1,0-0.3-0.1-0.6-0.2c-0.4-0.1-0.6-0.4-0.6-0.9c0-0.3,0.1-0.5,0.3-0.6c0.2-0.1,0.5-0.2,0.9-0.2h0.4H113.7z M117,32V19.4
			c0-0.8-0.1-1.4-0.3-1.9c-0.1-0.3-0.3-0.5-0.5-0.7c-0.2-0.1-0.5-0.3-1-0.4v-1.8c0.6,0,1,0,1.4,0.1c1.4,0.1,2.7,0.7,3.9,1.7
			c1.3,1,2.2,2.2,2.8,3.8c0.6,1.6,0.9,3.3,0.9,5.2c0,2.2-0.4,4.1-1.2,5.8s-1.9,3-3.4,4c-0.7,0.5-1.4,0.8-2,1
			c-0.6,0.2-1.4,0.3-2.5,0.3v-1.7c0.4-0.1,0.8-0.2,0.9-0.3c0.2-0.1,0.3-0.2,0.5-0.4c0.2-0.2,0.3-0.5,0.3-0.8
			C116.9,33,117,32.6,117,32z"/>
	</g>
	<g>
		<path class="st0" d="M56.8,7.6c0,0.7,0,1.3,0,2.1c-0.5,0-0.9,0-1.4,0c0,1.1,0,2.1,0,3.2c1.5,0.1,2.8,0.5,4.2,1.1
			c0.3-0.5,0.6-1,0.8-1.5c-0.3-0.2-0.6-0.4-1-0.6c0.3-0.6,0.7-1.2,1-1.8c1.3,0.7,2.5,1.4,3.8,2.2c-0.3,0.6-0.7,1.2-1,1.8
			c-0.3-0.2-0.6-0.4-1-0.6c-0.3,0.5-0.6,1-0.9,1.5c1.2,0.9,2.2,1.9,3.1,3.1c0.9-0.5,1.8-1.1,2.8-1.6c-0.2-0.4-0.5-0.8-0.7-1.2
			c0.6-0.3,1.2-0.7,1.8-1c0.8,1.4,1.6,2.8,2.4,4.2c-0.6,0.4-1.2,0.7-1.8,1c-0.2-0.4-0.5-0.8-0.7-1.2c-0.9,0.5-1.8,1.1-2.8,1.6
			c0.6,1.3,1,2.7,1.1,4.2c0.6,0,1.1,0,1.7,0c0-0.4,0-0.7,0-1.1c0.7,0,1.4,0,2,0c0,1.4,0,2.9,0,4.3c-0.7,0-1.3,0-2,0
			c0-0.4,0-0.7,0-1.1c-0.6,0-1.1,0-1.7,0c-0.1,1.5-0.5,2.9-1.1,4.2c0.9,0.5,1.8,1.1,2.8,1.6c0.2-0.4,0.5-0.8,0.7-1.2
			c0.6,0.3,1.2,0.7,1.8,1c-0.8,1.4-1.6,2.8-2.4,4.2c-0.6-0.4-1.2-0.7-1.8-1c0.2-0.4,0.5-0.8,0.7-1.2c-0.9-0.5-1.8-1.1-2.8-1.6
			c-0.9,1.2-1.9,2.2-3.1,3.1c0.3,0.5,0.6,1,0.9,1.5c0.3-0.2,0.6-0.4,1-0.6c0.3,0.6,0.7,1.2,1,1.8c-1.3,0.7-2.5,1.4-3.8,2.2
			c-0.4-0.6-0.7-1.2-1-1.8c0.3-0.2,0.6-0.4,1-0.6c-0.3-0.5-0.6-1-0.8-1.5c-1.3,0.6-2.7,1-4.2,1.1c0,1.1,0,2.1,0,3.2
			c0.5,0,0.9,0,1.4,0c0,0.7,0,1.4,0,2.1c-0.8,0-1.7,0-2.5,0c0-2.4,0-4.9,0-7.3c0.4-0.1,0.8,0,1.1-0.1c2.7-0.3,5-1.5,6.7-3.6
			c1.9-2.2,2.7-4.8,2.4-7.7c-0.5-4.8-4.2-8.5-8.9-9.1c-0.4-0.1-0.9-0.1-1.3-0.1c0-2.4,0-4.9,0-7.3C55.1,7.6,55.9,7.6,56.8,7.6z"/>
		<path class="st0" d="M54.3,35.5c0,2.4,0,4.9,0,7.3c-0.8,0-1.6,0-2.4,0c-0.1-0.7,0-1.3,0-2c0.5,0,0.9,0,1.4,0c0-1.1,0-2.2,0-3.3
			c-1.5-0.1-2.9-0.5-4.2-1.1c-0.3,0.5-0.6,1-0.9,1.5c0.3,0.2,0.6,0.4,1,0.6c-0.3,0.6-0.7,1.2-1,1.8c-1.2-0.7-2.5-1.4-3.7-2.2
			c0.3-0.6,0.7-1.2,1-1.8c0.3,0.2,0.6,0.4,1,0.6c0.3-0.5,0.6-1,0.9-1.5c-1.2-0.9-2.2-1.9-3.1-3.1c-0.9,0.5-1.9,1.1-2.8,1.6
			c0.2,0.4,0.5,0.8,0.7,1.2c-0.6,0.3-1.2,0.7-1.8,1c-0.8-1.4-1.6-2.8-2.4-4.2c0.6-0.3,1.2-0.7,1.8-1c0.2,0.4,0.5,0.8,0.7,1.2
			c0.9-0.5,1.8-1.1,2.8-1.6c-0.3-0.7-0.6-1.4-0.7-2.1c-0.2-0.7-0.3-1.4-0.4-2.1c-0.6,0-1.1,0-1.7,0c0,0.4,0,0.7,0,1.1
			c-0.7,0-1.4,0-2,0c0-1.4,0-2.8,0-4.3c0.7,0,1.3,0,2,0c0,0.4,0,0.7,0,1.1c0.6,0,1.1,0,1.7,0c0.1-1.4,0.5-2.8,1.1-4.2
			c-0.9-0.5-1.8-1.1-2.8-1.6c-0.2,0.4-0.5,0.8-0.7,1.2c-0.6-0.3-1.2-0.7-1.8-1c0.8-1.4,1.6-2.8,2.4-4.2c0.6,0.4,1.2,0.7,1.8,1
			c-0.2,0.4-0.5,0.8-0.7,1.2c0.9,0.5,1.9,1.1,2.8,1.6c0.9-1.2,1.9-2.2,3.1-3.1c-0.3-0.5-0.6-1-0.9-1.5c-0.3,0.2-0.6,0.4-1,0.6
			c-0.3-0.6-0.7-1.2-1-1.8c1.2-0.7,2.5-1.4,3.7-2.2c0.3,0.6,0.7,1.2,1,1.8c-0.3,0.2-0.6,0.4-1,0.6c0.3,0.5,0.6,1,0.9,1.5
			c1.3-0.6,2.7-1,4.2-1.1c0-1.1,0-2.1,0-3.2c-0.5,0-0.9,0-1.4,0c0-0.7,0-1.4,0-2.1c0.8,0,1.6,0,2.4,0c0,2.4,0,4.9,0,7.3c0,0,0,0,0,0
			c-0.1,0-0.3,0-0.4,0c-2.6,0.1-4.8,1.1-6.7,2.9c-2.4,2.3-3.4,5.2-3.1,8.4c0.3,3.3,2,5.9,4.9,7.7C50.6,35,52.4,35.5,54.3,35.5
			C54.3,35.5,54.3,35.5,54.3,35.5z"/>
		<path class="st0" d="M58.5,18.7c1.6,0,3,1.3,3,2.9c0,1.6-1.4,3-3,3c-1.6,0-2.9-1.4-2.9-3C55.5,20,56.9,18.7,58.5,18.7z"/>
		<path class="st0" d="M46.1,23.7c0-1.8,1.4-3.2,3.2-3.2c1.8,0,3.2,1.5,3.2,3.2c0,1.8-1.5,3.2-3.3,3.2
			C47.5,26.9,46.1,25.5,46.1,23.7z"/>
		<path class="st0" d="M51.8,30.3c0-1.8,1.4-3.2,3.2-3.2c1.8,0,3.2,1.5,3.2,3.2c0,1.8-1.5,3.2-3.3,3.2
			C53.2,33.5,51.8,32.1,51.8,30.3z"/>
	</g>
	<g>
		<path class="st0" d="M139.4,24.4l0.4-5.8c3.7-1.7,6.8-3.2,9.4-4.5c1.7-0.8,3.3-1.6,5-2.4v0.6c0,0.3-0.1,1.5-0.4,3.8
			c-0.1,1.2-0.3,3.2-0.5,5.9l-0.3,4.9c-0.3,4.5-0.6,7.2-0.8,8.3c-0.2,1-0.8,1.7-1.6,2.1c-0.8,0.5-3.2,1.1-7.1,1.7
			c0.5-1,0.8-2.5,0.9-4.5l0.2-5.6c0.1-2.5,0.1-4.6,0.1-6.1c0-0.5,0-0.9,0-1.4l-3.1,1.8C140.5,23.8,139.8,24.2,139.4,24.4z"/>
		<path class="st0" d="M174.4,10.3c2.4,1.8,3.9,3.4,4.5,5c0.6,1.6,0.9,3.3,0.9,5.1c0,2.6-0.4,4.9-1.3,7c-0.9,2.1-2,3.9-3.3,5.3
			c-1.3,1.4-3.6,3.3-6.7,5.6l-8.2,1.6c3.9-3.4,6.9-6.8,8.8-10.3c-2.5,0-4.9-0.7-7.5-2.2c-2.5-1.4-3.7-3.9-3.7-7.2
			c0-3.1,1.2-5.6,3.6-7.4c2.4-1.8,6.1-2.7,11-2.7C172.5,10.2,173.2,10.3,174.4,10.3z M167.8,15c-1,1.7-1.5,3.3-1.5,4.8
			c0,2.6,1.3,4.9,3.9,6.8c0.6-1.7,0.9-3.1,0.9-4.3C171.1,19.3,170,16.9,167.8,15z"/>
	</g>
	<g>
		<path class="st0" d="M138.1,27.1h-10.6v-2.5h10.6V27.1z"/>
	</g>
</g>
</svg>
