<?xml version="1.0" encoding="utf-8"?>
<!-- Generator: Adobe Illustrator 21.0.0, SVG Export Plug-In . SVG Version: 6.00 Build 0)  -->
<svg version="1.1" id="Layer_1" xmlns="http://www.w3.org/2000/svg" xmlns:xlink="http://www.w3.org/1999/xlink" x="0px" y="0px"
	 viewBox="0 0 200 50" style="enable-background:new 0 0 200 50;" xml:space="preserve">
<style type="text/css">
	.st0{fill:none;}
	.st1{fill:#FFFFFF;}
</style>
<rect x="-0.1" y="0" class="st0" width="199.8" height="49.8"/>
<g>
	<g>
		<path class="st1" d="M43.6,15.7v1.7c-0.6,0.1-1,0.3-1.2,0.7c-0.3,0.4-0.4,1-0.4,1.7v11.6V32c0,0.2,0,0.4,0.1,0.7
			c0.1,0.2,0.2,0.4,0.3,0.6c0.1,0.2,0.3,0.3,0.5,0.4c0.2,0.1,0.4,0.1,0.7,0.2v1.7c-1.8,0-3.4-0.5-4.7-1.4c-1.2-0.8-2.1-1.9-2.7-3.4
			c-0.6-1.4-0.9-3.1-0.9-5c0-1.4,0.2-2.7,0.6-3.9c0.4-1.2,0.9-2.3,1.7-3.2c0.7-0.9,1.6-1.6,2.7-2.2c1-0.6,2-0.8,3-0.8L43.6,15.7z
			 M44.7,17.4v-1.7c0.5,0.1,0.8,0.2,1.1,0.2c0.3,0.1,0.8,0.3,1.5,0.5c0.5,0.2,0.8,0.3,1,0.3c0.3,0,0.5-0.1,0.6-0.4l0.2-0.3
			c0.1-0.2,0.3-0.3,0.6-0.3c0.3,0,0.4,0.1,0.6,0.2c0.1,0.1,0.2,0.4,0.2,0.7v5.8c0,0.4-0.1,0.6-0.3,0.8c-0.2,0.2-0.4,0.3-0.6,0.3
			c-0.2,0-0.4-0.1-0.5-0.2c-0.1-0.1-0.2-0.4-0.3-0.7c-0.2-0.7-0.4-1.3-0.6-1.7c-0.4-0.9-0.9-1.6-1.4-2.2c-0.3-0.4-0.7-0.7-1-0.9
			C45.5,17.6,45.1,17.5,44.7,17.4z M44.7,35.6v-1.7c0.7-0.1,1.5-0.3,2.3-0.8c0.4-0.3,0.8-0.6,1.1-1.1c0.3-0.5,0.6-0.9,0.8-1.5
			c0.1-0.3,0.2-0.5,0.3-0.6c0.1-0.1,0.3-0.2,0.5-0.2c0.2,0,0.4,0.1,0.6,0.3c0.1,0.2,0.2,0.4,0.2,0.6c0,0.4-0.2,0.9-0.5,1.5
			c-0.3,0.6-0.7,1.1-1.2,1.7c-0.6,0.6-1.2,1.1-1.9,1.4C46.3,35.4,45.5,35.5,44.7,35.6z"/>
		<path class="st1" d="M91.8,30.3l-1.3,4.9h-3.7l-5-16.7c-0.1-0.3-0.1-0.4-0.2-0.5c-0.1-0.1-0.2-0.2-0.3-0.2
			c-0.3-0.1-0.5-0.2-0.6-0.3c-0.1-0.1-0.1-0.3-0.1-0.5c0-0.3,0.1-0.5,0.4-0.7c0.2-0.1,0.5-0.2,1-0.2h6.2c0.4,0,0.7,0,0.8,0
			c0.1,0,0.3,0.1,0.4,0.1c0.1,0.1,0.2,0.2,0.2,0.3c0.1,0.1,0.1,0.2,0.1,0.4c0,0.3-0.2,0.6-0.5,0.7c-0.2,0.1-0.4,0.2-0.5,0.4
			c-0.1,0.1-0.1,0.3-0.1,0.5c0,0.1,0,0.3,0,0.4L91.8,30.3z M92.3,28.3l-0.7-2.6l1.6-5.9c0.1-0.4,0.2-0.6,0.2-0.7
			c0-0.2,0-0.4-0.1-0.7c-0.1-0.3-0.4-0.5-0.7-0.6l-0.5-0.2c-0.4-0.1-0.5-0.4-0.5-0.7c0-0.3,0.1-0.4,0.3-0.6c0.2-0.1,0.5-0.2,0.9-0.2
			h3.4c0.4,0,0.7,0,0.8,0.1c0.2,0.1,0.3,0.3,0.3,0.6c0,0.2,0,0.3-0.1,0.4c-0.1,0.1-0.2,0.2-0.4,0.3l-0.7,0.3
			c-0.3,0.1-0.6,0.4-0.9,0.8c-0.3,0.4-0.5,0.9-0.6,1.4L92.3,28.3z"/>
		<path class="st1" d="M106.3,35.2H100h-0.4c-0.3,0-0.6-0.1-0.8-0.2c-0.2-0.1-0.3-0.3-0.3-0.5c0-0.4,0.2-0.6,0.6-0.8
			c0.3-0.1,0.5-0.2,0.5-0.2c0.1,0,0.1-0.1,0.2-0.2c0.1-0.1,0.2-0.4,0.2-0.7v-14c0-0.3-0.1-0.6-0.2-0.7c-0.1-0.1-0.1-0.1-0.2-0.2
			c-0.1,0-0.2-0.1-0.5-0.2c-0.4-0.1-0.6-0.4-0.6-0.8c0-0.2,0.1-0.4,0.3-0.5c0.2-0.1,0.4-0.2,0.8-0.2h0.4h6.2h0.4
			c0.3,0,0.6,0.1,0.8,0.2c0.2,0.1,0.3,0.3,0.3,0.5c0,0.4-0.2,0.6-0.6,0.8c-0.3,0.1-0.5,0.2-0.5,0.2s-0.1,0.1-0.2,0.2
			c-0.1,0.1-0.2,0.4-0.2,0.7v14c0,0.3,0.1,0.6,0.2,0.7c0.1,0.1,0.1,0.1,0.2,0.2s0.2,0.1,0.5,0.2c0.4,0.1,0.6,0.4,0.6,0.8
			c0,0.2-0.1,0.4-0.3,0.5c-0.2,0.1-0.4,0.2-0.8,0.2H106.3z"/>
		<path class="st1" d="M117.7,16.1v19.1h-6.2h-0.4c-0.3,0-0.6-0.1-0.8-0.2c-0.2-0.1-0.3-0.3-0.3-0.5c0-0.4,0.2-0.6,0.6-0.8
			c0.3-0.1,0.5-0.2,0.5-0.2c0.1,0,0.1-0.1,0.2-0.2c0.1-0.1,0.2-0.4,0.2-0.7v-14c0-0.3-0.1-0.6-0.2-0.7c-0.1-0.1-0.1-0.1-0.2-0.2
			c-0.1,0-0.2-0.1-0.5-0.2c-0.4-0.1-0.6-0.4-0.6-0.8c0-0.2,0.1-0.4,0.3-0.5c0.2-0.1,0.4-0.2,0.8-0.2h0.4H117.7z M120.5,31.2V20.1
			c0-0.7-0.1-1.2-0.3-1.6c-0.1-0.3-0.3-0.5-0.4-0.6c-0.2-0.1-0.5-0.2-0.8-0.3v-1.6c0.5,0,0.9,0,1.3,0.1c1.2,0.1,2.3,0.6,3.4,1.5
			c1.1,0.8,1.9,2,2.5,3.3c0.6,1.4,0.8,2.9,0.8,4.6c0,1.9-0.3,3.6-1.1,5.1c-0.7,1.5-1.7,2.6-3,3.5c-0.6,0.4-1.2,0.7-1.8,0.8
			c-0.5,0.1-1.3,0.2-2.1,0.2v-1.5c0.4-0.1,0.7-0.2,0.8-0.3c0.2-0.1,0.3-0.2,0.4-0.4c0.1-0.2,0.2-0.4,0.3-0.7
			C120.5,32.1,120.5,31.7,120.5,31.2z"/>
	</g>
	<g>
		<path class="st1" d="M67.7,9.8c0,0.6,0,1.2,0,1.8c-0.4,0-0.8,0-1.2,0c0,1,0,1.9,0,2.8c1.3,0.1,2.5,0.4,3.7,1
			c0.2-0.4,0.5-0.8,0.7-1.3c-0.3-0.2-0.6-0.3-0.8-0.5c0.3-0.5,0.6-1,0.9-1.6c1.1,0.6,2.2,1.3,3.3,1.9c-0.3,0.5-0.6,1-0.9,1.6
			c-0.3-0.2-0.6-0.3-0.9-0.5c-0.2,0.4-0.5,0.8-0.7,1.3c1.1,0.8,2,1.6,2.7,2.7c0.8-0.5,1.6-0.9,2.4-1.4c-0.2-0.4-0.4-0.7-0.6-1.1
			c0.5-0.3,1-0.6,1.6-0.9c0.7,1.2,1.4,2.5,2.1,3.7c-0.5,0.3-1,0.6-1.6,0.9c-0.2-0.4-0.4-0.7-0.6-1.1c-0.8,0.5-1.6,0.9-2.4,1.4
			c0.5,1.2,0.9,2.4,1,3.7c0.5,0,1,0,1.5,0c0-0.3,0-0.6,0-1c0.6,0,1.2,0,1.8,0c0,1.3,0,2.5,0,3.8c-0.6,0-1.2,0-1.8,0c0-0.3,0-0.6,0-1
			c-0.5,0-1,0-1.5,0c-0.1,1.3-0.4,2.5-1,3.7c0.8,0.5,1.6,0.9,2.4,1.4c0.2-0.4,0.4-0.7,0.6-1.1c0.5,0.3,1,0.6,1.6,0.9
			c-0.7,1.2-1.4,2.5-2.1,3.7c-0.5-0.3-1.1-0.6-1.6-0.9c0.2-0.4,0.4-0.7,0.6-1.1c-0.8-0.5-1.6-0.9-2.4-1.4c-0.8,1.1-1.6,2-2.7,2.7
			c0.3,0.4,0.5,0.8,0.7,1.3c0.3-0.2,0.6-0.3,0.9-0.5c0.3,0.5,0.6,1,0.9,1.6c-1.1,0.6-2.2,1.3-3.3,1.9c-0.3-0.5-0.6-1-0.9-1.6
			c0.3-0.2,0.5-0.3,0.8-0.5c-0.2-0.4-0.5-0.8-0.7-1.3c-1.2,0.5-2.4,0.9-3.7,1c0,0.9,0,1.9,0,2.8c0.4,0,0.8,0,1.3,0
			c0,0.6,0,1.2,0,1.8c-0.7,0-1.4,0-2.2,0c0-2.1,0-4.3,0-6.4c0.3-0.1,0.7,0,1-0.1c2.4-0.3,4.3-1.3,5.9-3.1c1.7-2,2.4-4.2,2.1-6.8
			c-0.5-4.2-3.7-7.4-7.8-8c-0.4,0-0.8-0.1-1.1-0.1c0-2.1,0-4.3,0-6.4C66.3,9.8,67,9.8,67.7,9.8z"/>
		<path class="st1" d="M65.6,34.2c0,2.1,0,4.3,0,6.4c-0.7,0-1.4,0-2.1,0c-0.1-0.6,0-1.2,0-1.8c0.4,0,0.8,0,1.2,0c0-1,0-1.9,0-2.8
			c-1.3-0.1-2.5-0.4-3.7-1c-0.3,0.4-0.5,0.9-0.8,1.3c0.3,0.2,0.6,0.3,0.9,0.5c-0.3,0.5-0.6,1-0.9,1.6c-1.1-0.6-2.2-1.3-3.3-1.9
			c0.3-0.5,0.6-1,0.9-1.6c0.3,0.2,0.6,0.3,0.9,0.5c0.3-0.4,0.5-0.9,0.8-1.3c-1-0.8-2-1.6-2.7-2.7c-0.8,0.5-1.6,0.9-2.5,1.4
			c0.2,0.4,0.4,0.7,0.6,1.1c-0.5,0.3-1,0.6-1.6,0.9c-0.7-1.2-1.4-2.5-2.1-3.7c0.5-0.3,1-0.6,1.6-0.9c0.2,0.4,0.4,0.7,0.6,1.1
			c0.8-0.5,1.6-0.9,2.4-1.4c-0.3-0.6-0.5-1.2-0.7-1.8c-0.2-0.6-0.3-1.2-0.3-1.9c-0.5,0-1,0-1.5,0c0,0.3,0,0.6,0,1
			c-0.6,0-1.2,0-1.8,0c0-1.2,0-2.5,0-3.8c0.6,0,1.2,0,1.8,0c0,0.3,0,0.6,0,0.9c0.5,0,1,0,1.5,0c0.1-1.3,0.4-2.5,1-3.7
			c-0.8-0.5-1.6-0.9-2.5-1.4c-0.2,0.4-0.4,0.7-0.6,1.1c-0.5-0.3-1-0.6-1.6-0.9c0.7-1.2,1.4-2.5,2.1-3.7c0.5,0.3,1,0.6,1.6,0.9
			c-0.2,0.4-0.4,0.7-0.6,1.1c0.8,0.5,1.6,0.9,2.5,1.4c0.8-1.1,1.6-2,2.7-2.7c-0.3-0.4-0.5-0.9-0.8-1.3c-0.3,0.2-0.6,0.3-0.9,0.5
			c-0.3-0.5-0.6-1-0.9-1.6c1.1-0.6,2.2-1.3,3.3-1.9c0.3,0.5,0.6,1,0.9,1.6c-0.3,0.2-0.6,0.3-0.9,0.5c0.3,0.4,0.5,0.9,0.8,1.3
			c1.2-0.5,2.4-0.9,3.7-1c0-0.9,0-1.9,0-2.8c-0.4,0-0.8,0-1.2,0c0-0.6,0-1.2,0-1.8c0.7,0,1.4,0,2.1,0c0,2.1,0,4.3,0,6.4c0,0,0,0,0,0
			c-0.1,0-0.3,0-0.4,0c-2.3,0.1-4.2,0.9-5.8,2.5c-2.1,2-3,4.5-2.7,7.4c0.3,2.9,1.8,5.2,4.3,6.8C62.3,33.8,63.9,34.2,65.6,34.2
			C65.5,34.2,65.6,34.2,65.6,34.2z"/>
		<path class="st1" d="M69.2,19.5c1.4,0,2.6,1.1,2.6,2.6c0,1.4-1.2,2.6-2.6,2.6c-1.4,0-2.6-1.2-2.6-2.6
			C66.6,20.6,67.8,19.5,69.2,19.5z"/>
		<path class="st1" d="M58.4,23.8c0-1.6,1.2-2.8,2.8-2.8c1.6,0,2.8,1.3,2.8,2.8c0,1.5-1.3,2.8-2.9,2.8
			C59.6,26.7,58.4,25.4,58.4,23.8z"/>
		<path class="st1" d="M63.4,29.6c0-1.6,1.2-2.8,2.8-2.8c1.6,0,2.8,1.3,2.8,2.8c0,1.5-1.3,2.8-2.9,2.8
			C64.6,32.5,63.4,31.2,63.4,29.6z"/>
	</g>
	<g>
		<path class="st1" d="M140.2,24.4l0.3-5.1c3.2-1.5,6-2.8,8.3-4c1.5-0.7,2.9-1.4,4.4-2.1v0.5c0,0.2-0.1,1.3-0.4,3.4
			c-0.1,1-0.3,2.8-0.4,5.2l-0.3,4.3c-0.3,3.9-0.5,6.3-0.7,7.2c-0.2,0.8-0.7,1.5-1.4,1.9c-0.7,0.4-2.8,0.9-6.2,1.5
			c0.4-0.9,0.7-2.2,0.8-4l0.2-4.9c0.1-2.2,0.1-4,0.1-5.3c0-0.4,0-0.8,0-1.2l-2.7,1.6C141.1,23.9,140.5,24.3,140.2,24.4z"/>
		<path class="st1" d="M170.8,12.1c2.1,1.5,3.4,3,3.9,4.4c0.5,1.4,0.7,2.9,0.7,4.5c0,2.3-0.4,4.3-1.2,6.1c-0.8,1.9-1.8,3.4-2.9,4.7
			c-1.2,1.3-3.2,2.9-5.9,4.9l-7.2,1.4c3.4-3,6-6,7.7-9c-2.1,0-4.3-0.6-6.5-1.9c-2.2-1.3-3.3-3.4-3.3-6.3c0-2.7,1.1-4.9,3.2-6.5
			c2.1-1.6,5.3-2.4,9.6-2.4C169.1,12.1,169.8,12.1,170.8,12.1z M165,16.3c-0.9,1.5-1.3,2.9-1.3,4.2c0,2.3,1.2,4.3,3.5,6
			c0.5-1.5,0.7-2.7,0.7-3.8C167.9,20,166.9,17.9,165,16.3z"/>
	</g>
	<g>
		<path class="st1" d="M139,26.9h-9.3v-2.2h9.3V26.9z"/>
	</g>
</g>
</svg>
